<svg width="128" height="227" viewBox="0 0 128 227" fill="none" xmlns="http://www.w3.org/2000/svg">
<path d="M95.689 105.772C98.4772 99.8097 104.464 96 111.046 96V96C120.41 96 128 103.59 128 112.954V207.674C128 218.348 119.348 227 108.674 227H69.3715C55.2258 227 45.8732 212.302 51.8653 199.488L95.689 105.772Z" fill="#7C7D81" fill-opacity="0.25"/>
<path d="M34.63 44.9108C23.3688 30.3065 -2.38419e-07 38.2699 -2.38419e-07 56.7117V146.674C-2.38419e-07 157.348 8.65241 166 19.3257 166H88.6945C104.739 166 113.796 147.579 103.999 134.873L34.63 44.9108Z" fill="#A5ACCB" fill-opacity="0.25"/>
</svg>
