<?xml version="1.0" encoding="UTF-8"?>
<svg xmlns="http://www.w3.org/2000/svg" viewBox="0 0 300 300">
  <defs>
    <style>.cls-1{fill:#d52551;}.cls-2,.cls-3{fill:#fff;}.cls-2{fill-rule:evenodd;}.cls-4{fill:#2f529e;}.cls-5{fill:none;}</style>
  </defs>
  <g id="Layer_2" data-name="Layer 2">
    <g id="Layer_1-2" data-name="Layer 1">
      <ellipse class="cls-1" cx="150.16" cy="150" rx="146.19" ry="150"></ellipse>
      <path class="cls-2" d="M56.09,65.16l2.48,2.28c-17,20.08-27.08,43.13-29.85,69.28A127.25,127.25,0,0,0,43,210.87l-3,1.73a131.76,131.76,0,0,1,.56-125.34C44.7,79.86,53.65,67.12,56.09,65.16Z"></path>
      <path class="cls-2" d="M260.53,212.05c-1-.58-1.93-1.11-2.94-1.69,10.14-18.71,15.11-40.75,14.72-62-.58-31.38-11-58.27-31.09-81.47.6-1,1.21-2,1.89-3,24.27,27.34,33.3,59.1,32.64,89.72C275.34,172.38,270.19,195.67,260.53,212.05Z"></path>
      <ellipse class="cls-3" cx="150.12" cy="150.03" rx="101.46" ry="104.11"></ellipse>
      <ellipse class="cls-4" cx="150.13" cy="150.01" rx="97.48" ry="100.57"></ellipse>
    </g>
    <g id="Layer_1-3" data-name="Layer 1">
      <path class="cls-2" d="M210.5,36.21l3.74,1.54c-.62,1.6-1.44,3.12-2.19,4.67-.42.87-.82,1.81.14,2.52,1.29,1,2.57,1.93,3.95,3L220.07,41l3.64,2.13c-1.93,3.47-3.86,6.87-5.78,10.26-.75,0-4-2-4.86-2.48a7,7,0,0,1-3.52-4.29c-3.34.91-5.76-.32-7.61-3.15a5,5,0,0,1-4.37-.18,5.85,5.85,0,0,1-3.34-3,1.7,1.7,0,0,0-.35.06,3.76,3.76,0,0,1-2.66.13c-1.35-.41-2.69-.82-4-1.27a4.39,4.39,0,0,1-2.92-2.9c-.22.09-.4.15-.57.24a4.48,4.48,0,0,1-3.25.35c-2.72-.65-8.23-1.7-10.28-2.58a3.86,3.86,0,0,1-2.46-4.54,153.76,153.76,0,0,1,3.81-15.57l3.94,1c-1,4.88-2.54,9.77-3.51,14.66-.08.66,0,.82.67,1,2.72.72,5.5,1.54,8.22,2.21,1.05.26,1.64-.18,1.72-1.26.2-3-2.14-5.23-4.32-6.81.47-1.24,1.24-2.85,2.74-3l12.26-1.14L191.94,25l-7.43.73a3.24,3.24,0,0,0,.31.57C186.89,29,186.35,31.09,187,34a2,2,0,0,0,1.39,1.47l2.14.79c1.27.47,1.58.35,2.08-.89.73-1.83,1.42-3.66,2.19-5.47l3.73,1.51c-.46,1.58-1.18,3.18-1.78,4.73-.38,1-.65,2.07.43,2.75s2.57,1.27,3.21-.32c.73-1.83,1.42-3.66,2.19-5.48l3.74,1.53a49.26,49.26,0,0,1-1.87,5c-1.17,2.84,2.4,3.92,3.13,2.51C208.64,40.17,209.49,38.15,210.5,36.21Z"></path>
      <path class="cls-2" d="M103.71,30.11c.72,1.59,1.37,3.06,2,4.53.45,1,1,2.16,2.34,1.68.66-.23,1.28-.56,2-.88-1-2.29-2-4.51-3-6.82l3.41-2a110.58,110.58,0,0,1,4.84,10.41,34.91,34.91,0,0,1-4.71,2.28,4.09,4.09,0,0,1-3.64.12c-1.69,3.06-4.29,4.12-7.74,3.59-1,2.27-2.66,2.92-4.61,4.12a4.06,4.06,0,0,1-3.82.53c-.58,2.27-5.68,5.44-8,6.32-2,.75-3.69-.53-4.7-2.15l-8.22-13.4L73.15,36c2.66,4.12,5.2,8.38,7.78,12.55,1,1.58,1.16,1.65,2.75.69,1.33-.8,3.11-2.05,2.16-3.78-1.1-2-2.18-4-3.2-6.07l3.59-2c1.22,2,2.13,4.2,3.37,6.23.66,1.08,1,1.19,2.12.57.9-.49,1.77-1,2.63-1.58,1.65-1.06-1.28-5.46-2-7.26L96,33.68c1,1.73,1.49,3.8,2.54,5.4s4.69.27,3.8-1.81c-.78-1.8-1.6-3.59-2.38-5.39C101.17,31.24,102.39,30.7,103.71,30.11Z"></path>
      <path class="cls-2" d="M131.25,22.23l4.09-.37c.18,1.8.33,3.6.51,5.4a1.88,1.88,0,0,0,2.1,1.88c2-.09,4-.2,6.05-.35,1.35-.11,1.81-1,1.1-2.14-1.72-2.78-5.17-4.94-7.94-6.52.34-1.66.77-3.21,2.51-4,3.35-1.57,7-3.59,10.4-4.91,0,1.22.57,4.11-.51,4.59-2.17.95-4.41,1.92-6.52,3,3.23,2.38,6.76,5.08,6.38,9.59-.23,2.64-2.21,4-4.69,4.2-2.79.18-5.59.27-8.38.51-.17,4.92-1.9,7.1-7.14,7.32a30.41,30.41,0,0,1-.35-3.87c1.52-.36,3.22-.55,3.27-2.54C132,30.2,131.59,26,131.25,22.23Z"></path>
      <path class="cls-2" d="M57.94,56.33l3.17-2.66c1.42,1.59,2.67,3.39,4,5,1.22,1.49,2.75,2.72,4.74,1.77a7.42,7.42,0,0,0,3-2.59,3,3,0,0,0,.2-3.25c-1.21-2.33-4.07-5.25-5.75-7.5l3.1-2.61c1.93,2.17,6.31,7.22,7,10.17a5.87,5.87,0,0,1-.66,4.49c-2.45,4-7.75,7.84-12.3,4.71C62.28,62.38,59.68,58.52,57.94,56.33Z"></path>
      <path class="cls-2" d="M217.32,262.23c-1.48-2.28-2.92-4.47-4.41-6.75-1.57.87-3.09,1.43-3,3.6a6,6,0,0,0,2.41,4.57c1.7,1.38,3.83,0,5-1.42Zm-5.86-9-3-4.58a12.87,12.87,0,0,1,2.62-1.83c.53.47,9.7,14.4,10.18,15.45-1.8,2.05-4.52,4.52-7.29,4.95-4.07.64-7.16-3.58-7.29-7.3S208.82,255,211.46,253.27Z"></path>
      <path class="cls-2" d="M60.39,219.63a11.49,11.49,0,0,1,2,2.84c-2.43,2.14-8.65,6.74-11.87,7.32-4.33.78-8.81-5.61-6.67-9.69,1.85-3,7.36-6.71,10.33-8.65a6.77,6.77,0,0,1,2,2.85c-2.7,2.1-6.3,4.16-8.61,6.59a3.2,3.2,0,0,0,.8,5.15C50.77,227.52,58.18,221.17,60.39,219.63Z"></path>
      <path class="cls-2" d="M160.57,23.05c-2-.38-2.9,2.24-2.75,3.83.2,2.07,3.29,2.49,4,.65.53-1.36.65-4.12-1.25-4.48ZM157,31.71a4.94,4.94,0,0,1-3.23-4.95c.08-4.06,3.35-8.61,7.81-7.45C169.37,21.32,166.9,35.9,157,31.71Z"></path>
      <path class="cls-2" d="M138.37,270.23c-2.15,5-4.51,9.93-6.78,14.85-.81,1.77-1.78,3.11-4,3a6.4,6.4,0,0,1-3-.77,3.39,3.39,0,0,1,.72-2.14c3,.43,3.31.25,4.35-2.76l-2.33-.35c-.64-4.58-1.28-9.14-1.93-13.81a9.12,9.12,0,0,1,3.56.53c.37,4.12.73,8.21,1.12,12.51,1.69-3.15,3.2-7.38,4.62-10.75C135.34,269.13,137.26,269.64,138.37,270.23Z"></path>
      <path class="cls-2" d="M259.51,219.55a9.54,9.54,0,0,1-1.82,2.79c-2.28-1.44-4.89-3.71-7.24-4.7-2-.87-3.47,1-3,2.76s6,5,7.48,6a5.93,5.93,0,0,1-1.78,2.91L242.36,222a6.44,6.44,0,0,1,1.12-2c.54-.7,1.59.06,2.26.36-.64-2.51-.65-5.26,2.21-6.52S257.3,217.72,259.51,219.55Z"></path>
      <path class="cls-2" d="M60.63,226a4.34,4.34,0,0,1,1.74,2.23l-1.3,1.55c4.34.08,7,3.61,4.11,7.32-1.24,1.59-5.93,5-7.67,6.25a7.25,7.25,0,0,1-2.06-2.62c2.09-1.83,4.88-3.47,6.65-5.5,1.93-2.22-.53-5.49-4.36-2.56-1.77,1.36-3.48,2.82-5.27,4.14a9.9,9.9,0,0,1-2-2.69Z"></path>
      <path class="cls-2" d="M149,273.31c-3.74.09-3.82,8.84.28,8.77,3.92-.06,3.78-8.86-.28-8.77Zm.07,11.31a5.55,5.55,0,0,1-5.75-4.22,9.34,9.34,0,0,1-.14-5.11c.91-3.62,3.68-4.94,7-4.58a5.43,5.43,0,0,1,4.83,4.12,9.22,9.22,0,0,1,.24,5A5.69,5.69,0,0,1,149,284.62Z"></path>
      <path class="cls-2" d="M86,258.4c2.49-3-1.41-6.87-4.32-3.37L86,258.4Zm-1.61,5.19a4.48,4.48,0,0,1-1,2.36c-3.4-1.38-7.73-4.28-6.75-8.53a8.59,8.59,0,0,1,4.27-5.75,5.94,5.94,0,0,1,8.41,7.1,8.86,8.86,0,0,1-2.23,3.4l-6.73-5.25C77.62,260.17,82,262.37,84.35,263.59Z"></path>
      <path class="cls-2" d="M184.93,267a5.75,5.75,0,0,1,3.08-1.46c1.05,2,1.94,4.17,2.93,6.24.69,1.43,1.46,2.87,3.3,2.55a5,5,0,0,0,2.37-1.38l-4.37-9.5a5.65,5.65,0,0,1,3-1.45c1.77,3.81,3.54,7.65,5.38,11.62-2.47,1.78-5,3.95-8.2,3.82a4.44,4.44,0,0,1-3.54-2.4C187.53,272.36,186.25,269.67,184.93,267Z"></path>
      <path class="cls-2" d="M247.74,232.66l-2.82-2.27c-1.33,1.09-3,3.43-1.07,4.78,1.74,1.21,3.28-1.15,3.89-2.51Zm-4.52-3.57c-2.45-2.47-4.31,1.27-5.21,3.28a3.88,3.88,0,0,1-2.22-.89c.85-3.39,4.34-8,8.32-5.81a48,48,0,0,1,7.16,5.67c-.82,3.22-5,9.37-9,6.62C238.5,235.4,241.13,231.63,243.22,229.09Z"></path>
      <path class="cls-2" d="M234.49,52.87l4.28.63c.12,2.09-1.06,9.41-2.8,11s-3.79,1.26-5.44-.18a72.08,72.08,0,0,1-5.62-5.06l2-3.05c1.19.9,5.3,5.1,6.1,4.76S234.3,54.05,234.49,52.87Z"></path>
      <path class="cls-2" d="M118.49,37l-1.18-3.5c2-.65,4.58-1,6.46-1.75.86-.32,1-.75.34-1.43-1.54-1.66-3.56-3.35-5.25-4.91.3-.65,2.57-3.82,3.27-3.12,2.09,2.09,6.82,5.94,6.89,8.92,0,2.24-1.43,3.43-3.41,4C123.43,35.83,120.73,36.58,118.49,37Z"></path>
      <path class="cls-2" d="M164.94,265.06c-.08.88-.16,1.68-.25,2.58-2.31,0-3.7.38-3.28,3.33l2.89-.18a3.37,3.37,0,0,1,.15,2.48l-2.87.28c.06,3.11.47,7.44.71,10.71a7.3,7.3,0,0,1-3.27.26c-.28-3.56-.56-7.07-.83-10.62h-2a4.49,4.49,0,0,1-.31-2.43l2.06-.22c.16-2.56-.14-4.78,2.92-6A6.5,6.5,0,0,1,164.94,265.06Z"></path>
      <path class="cls-2" d="M72.29,239.62c.79.62,2.83,2.27,2.17,3.35s-1.22,2-1.83,3-3.11,4.67-3.27,5.68l9.38-4.57a10.1,10.1,0,0,1,2.38,2.72c-3.86,1.78-8.29,3.29-12.3,4.88a1,1,0,0,1-1.29-.3c-.43-.52-.87-1-1.32-1.52a1,1,0,0,1-.1-1.27q2.79-5.37,5.54-10.76C71.84,240.45,72,240.1,72.29,239.62Z"></path>
      <path class="cls-2" d="M230.24,255.49a5.72,5.72,0,0,1-1.42-2.17c1.31-.89,4.93-3.4,3.06-5-1-.9-2.31.39-3.3.89-3.93,2-7-.67-5.78-4.23.7-2.13,2.67-3.78,4.57-4.85a5,5,0,0,1,1.31,2c-1.09.69-2.75,1.81-3.11,3a1.17,1.17,0,0,0,1.61,1.36c1.87-1,4-2.77,6-1.44a4.33,4.33,0,0,1,1.69,5.54C233.94,253,232.21,254.14,230.24,255.49Z"></path>
      <path class="cls-2" d="M108.69,265l-1.61,1.77c-.82-.76-3.68-3.47-4.66-1.73-.74,1.29,1.51,2.92,2.29,3.77,2.24,2.44,0,6-2.52,6.32-2.86.33-5.45-1.29-7.32-3.34l1.66-1.93a8.15,8.15,0,0,0,3.57,2.43c1.42.33,2.76-.61,2-1.95-1.28-2.17-4.87-3.2-2.65-6.85a3.64,3.64,0,0,1,4-1.74A10.06,10.06,0,0,1,108.69,265Z"></path>
      <path class="cls-2" d="M187.68,279.6c-1.12.27-3.39,1.24-4.18.4q-3.28-3.5-6.58-7a1,1,0,0,1-.24-1c.77-3,1.54-5.95,2.28-8.93a1.16,1.16,0,0,1,.88-1,11.93,11.93,0,0,1,2.9-.6c-.63,3-1.6,6.16-2.45,9.1a1.33,1.33,0,0,0,.38,1.48C183,274.55,185.45,277.05,187.68,279.6Z"></path>
      <path class="cls-2" d="M116.94,269.09l-1.58-.69c.49-.79,5.31-3.43,6.77-4.3.2.92-.77,2.88-1.14,3.87l2.78,1.19a3.92,3.92,0,0,1-.87,2.32l-2.81-1.1a31.16,31.16,0,0,0-2.36,6.34c-.28,1.84,1.12,2,2.47,2.52a3.9,3.9,0,0,1-.61,2.35,7.29,7.29,0,0,1-3.66-1.32,3.49,3.49,0,0,1-1.61-3.94A76.85,76.85,0,0,1,116.94,269.09Z"></path>
      <path class="cls-2" d="M232.74,43.62,223.23,57.4,219.86,55l9.5-13.77Z"></path>
      <path class="cls-2" d="M231.72,239.22l-1.19,1.2a33,33,0,0,1-1.26-8.11,26,26,0,0,1,2.89,2.64l2.11-2.25a4.73,4.73,0,0,1,1.8,1.67l-2.19,2.46c1.9,1.29,3.25,3.28,5,4.43,1.54,1,2.3-.41,3.21-1.45a4.25,4.25,0,0,1,2,1.48c-1,1.57-2.09,3-4,3.63-1.58.5-2.94-.56-4-1.58C234.61,242,233.21,240.55,231.72,239.22Z"></path>
      <path class="cls-2" d="M170.16,264.72a12.41,12.41,0,0,1,3.31-.92c1.52,6.05,2.94,12.08,4.42,18.07a6.12,6.12,0,0,1-3.34.89C173.1,276.79,171.64,270.8,170.16,264.72Z"></path>
      <path class="cls-2" d="M93,256.54c2.68.63,2.41,1.42,1.81,3.38,1.75-.72,3.36-1,4.83.28a5.07,5.07,0,0,1-1.41,2.57c-1.77-1-3.35-1.66-4.82.37s-2.49,4.54-3.83,6.75a13.42,13.42,0,0,1-2.89-1.67Z"></path>
      <path class="cls-2" d="M203.35,273.26l-6-11.83c.53-.57,2.1-1.75,2.78-.91.28.36.58.71,1,1.19.35-1.88,1-3.41,2.95-4a6.86,6.86,0,0,1,1.27,2.63c-3,1.7-3.24,2.83-1.74,5.83.91,1.82,1.88,3.63,2.75,5.48A12.44,12.44,0,0,1,203.35,273.26Z"></path>
      <path class="cls-2" d="M109.45,278.47a8.09,8.09,0,0,1-3-1.32l4.12-9.87-1.49-.73a4,4,0,0,1,.89-2.33l4.6,2C112.85,270.34,111.17,274.37,109.45,278.47Z"></path>
      <path class="cls-2" d="M66.34,236.94l1.81-1.67,3.42,3.89c-3.23,3-6.41,5.93-9.65,8.93a8.84,8.84,0,0,1-2.18-2.49l7.78-7.21Z"></path>
      <path class="cls-2" d="M218.78,251.39l-1.33,1a3.69,3.69,0,0,1-1.54-1.93c1.25-1,2.53-2.06,3.91-3.15l8,10.45a8.55,8.55,0,0,1-2.54,2.09C223.07,257.1,220.94,254.2,218.78,251.39Z"></path>
      <path class="cls-2" d="M179.8,21.33c.45-1.87,1.17-2.89,3.17-3.06,3.71-.32,7.42-.55,11.13-.83a10.36,10.36,0,0,1-.76,2.46Z"></path>
      <path class="cls-2" d="M80.7,39.26a2.32,2.32,0,0,1-2.27-2.32A2.28,2.28,0,1,1,83,37,2.3,2.3,0,0,1,80.7,39.26Z"></path>
      <path class="cls-2" d="M210.27,26a2.28,2.28,0,1,1-4.56-.1,2.28,2.28,0,1,1,4.56.1Z"></path>
      <path class="cls-2" d="M85.21,36.8a2.27,2.27,0,0,1-2.31-2.26,2.3,2.3,0,0,1,2.2-2.37,2.37,2.37,0,0,1,2.33,2.27A2.33,2.33,0,0,1,85.21,36.8Z"></path>
      <path class="cls-2" d="M69.5,54.25A2.25,2.25,0,1,1,67.2,52,2.22,2.22,0,0,1,69.5,54.25Z"></path>
      <path class="cls-2" d="M210.83,31.24a2.25,2.25,0,1,1-4.5-.15,2.25,2.25,0,1,1,4.5.15Z"></path>
      <path class="cls-2" d="M206.12,29.23a2.22,2.22,0,0,1-2.22,2.32,2.28,2.28,0,0,1-2.29-2.29A2.36,2.36,0,0,1,203.92,27,2.24,2.24,0,0,1,206.12,29.23Z"></path>
      <path class="cls-2" d="M226,38.77A2.26,2.26,0,0,1,223.68,41a2.29,2.29,0,0,1-2.2-2.36,2.26,2.26,0,1,1,4.51.11Z"></path>
      <path class="cls-2" d="M75.87,235.49l-2.39,2.06a12.27,12.27,0,0,1-2.26-2.76c.31-.45,2.06-2.42,2.68-1.86A8.68,8.68,0,0,1,75.87,235.49Z"></path>
      <path class="cls-2" d="M115.19,263.78l-3.06-1.37a6.16,6.16,0,0,1,1.23-3.05,8.26,8.26,0,0,1,3.13,1.38A10.3,10.3,0,0,1,115.19,263.78Z"></path>
      <path class="cls-2" d="M213.25,245l2.68-2.17a11.65,11.65,0,0,1,2,2.61,11.28,11.28,0,0,1-2.73,2.2A8.58,8.58,0,0,1,213.25,245Z"></path>
      <path class="cls-2" d="M188.68,94.51c-4.82-5.4-13.63-16.11-20.84-17.18-8.43-1.25-11.94,3.55-17.67,8.41-5.58-4.47-8.62-9.15-16.8-8.41-6.65.59-17.47,11.9-21.52,17l22.43,23c7.44-2.72,14.62-2.22,20.67,3.48a20.12,20.12,0,0,1,2.09,27c-3.15,4.18-8.66,9.07-9.63,14.16a11.38,11.38,0,0,0,9.22,13.61c5,.92,8-1.28,11.13-3.78l32.73,33.64c-5.09,5.7-13.06,13.58-18.7,19.09-9,9-21.75,8.49-31.61,1-9.91,8-23,8-32.1-1.25-6.23-6.28-12.36-12.68-18.53-19l33.13-33.7c1.37.84,2.67,1.85,4,2.75a2.24,2.24,0,0,1,.82.88c2.32,4.62,4.47,6.22,8.27,9.35-3,2.23-8.08-.28-10.89-1.64-.84-.41-.82-.45-1.47.21-6.87,7-15.17,15-21.75,22.18,4.36,5,13.75,15.88,20.22,17,8.83,1.59,12.37-3.32,18.25-8.31,4.22,3.41,7.36,7.56,13.16,8.33,10.1,1.34,19.14-9.65,25.15-16.87L167,183.4c-.49-.52-.69-.8-1.48-.45-4,1.81-9.77,1.56-13.79-.08a19.46,19.46,0,0,1-12.55-15.69c-1-5.92,1.33-12.24,5-16.88,3.5-4.45,9.43-10.12,8.89-16a11.18,11.18,0,0,0-9.73-10.12c-4.58-.46-7.19,1.22-10.18,4.39L99.78,94.29C112.87,79.71,129.56,58,150.1,74.24c10.12-7.88,22.72-8.16,32.12,1.26,6.14,6.16,12.67,12.63,18.51,19l-33.32,33.89c-2.16-1.47-3.86-2.29-5.14-4.77-2-3.87-4.34-5.79-7.67-8.36,1.88-1.89,9.27,1,11.64,2Z"></path>
      <path class="cls-2" d="M204.35,189.28c4.22-3.9,8.44-8.52,12.5-12.65,9-10.72,2.45-18.5-3.95-26.71,6.24-8.2,13.28-14.21,4.22-26.2-3.24-3.42-9.27-10.32-12.68-13L182,133.63c6.5,20.72-12.29,33.69-28,24.36,1.64-2.2,3.56-4.2,5.17-6.36,14.23,4.45,20.33-8.68,12.19-19.48l33.18-33.74c6.13,5.9,12.45,12.3,18.11,18.55,9.09,9.29,9.37,22.6,1.58,32.85,7.63,10.41,8.52,22.91-1.16,32.82-5.91,6.05-12.51,13.41-18.71,19q-16.4-16.84-32.74-33.64c.62-1.11,2.87-4.86,3.62-5.28a23.51,23.51,0,0,0,8.43-7.79c.8-1.21,1.06,1.1,1.14,1.69.46,3.53-1,6.9-2.48,10Z"></path>
      <path class="cls-2" d="M96,110.77c-4.23,3.9-8.44,8.52-12.51,12.65-9,10.72-2.45,18.5,4,26.71-6.23,8.2-13.27,14.21-4.22,26.2,3.25,3.42,9.27,10.32,12.68,13l22.49-22.88c-6.5-20.72,12.29-33.69,28-24.37-1.64,2.21-3.55,4.21-5.17,6.37C126.94,144,120.84,157.1,129,167.89L95.8,201.64c-6.13-5.91-12.45-12.3-18.11-18.55-9.09-9.29-9.37-22.61-1.58-32.85-7.62-10.41-8.51-22.91,1.16-32.82,5.91-6,12.52-13.41,18.71-19q16.39,16.85,32.74,33.64c-.62,1.11-2.87,4.86-3.62,5.28a23.51,23.51,0,0,0-8.43,7.79c-.8,1.21-1.06-1.1-1.13-1.69-.46-3.54,1-6.9,2.47-10Z"></path>
      <rect class="cls-5" width="300" height="300"></rect>
    </g>
  </g>
</svg>
