<svg width="23" height="12" viewBox="0 0 23 12" fill="none" xmlns="http://www.w3.org/2000/svg">
<path d="M5.55311 11.3259C4.46635 11.3259 3.53155 11.0956 2.74872 10.6351C1.97049 10.17 1.37185 9.52535 0.952802 8.70107C0.53836 7.8768 0.331139 6.92818 0.331139 5.85524C0.331139 4.76848 0.540663 3.81527 0.95971 2.99559C1.38336 2.17131 1.9843 1.52893 2.76253 1.06844C3.54076 0.603341 4.46635 0.370794 5.53929 0.370794C6.46488 0.370794 7.27534 0.538873 7.97068 0.875031C8.66603 1.21119 9.21631 1.68319 9.62154 2.29104C10.0268 2.89889 10.2501 3.61265 10.2916 4.43232H7.5148C7.43651 3.90276 7.22929 3.4768 6.89314 3.15446C6.56158 2.82751 6.12642 2.66404 5.58764 2.66404C5.13176 2.66404 4.73343 2.78837 4.39267 3.03704C4.05651 3.2811 3.79403 3.63798 3.60523 4.10768C3.41643 4.57738 3.32203 5.14608 3.32203 5.8138C3.32203 6.49072 3.41413 7.06633 3.59832 7.54064C3.78712 8.01494 4.05191 8.37643 4.39267 8.62509C4.73343 8.87376 5.13176 8.99809 5.58764 8.99809C5.9238 8.99809 6.22542 8.92902 6.49251 8.79087C6.7642 8.65272 6.98754 8.45241 7.16252 8.18993C7.34211 7.92285 7.45954 7.6028 7.5148 7.22981H10.2916C10.2455 8.04027 10.0245 8.75403 9.62845 9.37109C9.23703 9.98354 8.69596 10.4625 8.00522 10.8078C7.31448 11.1532 6.49711 11.3259 5.55311 11.3259ZM22.0669 0.508941L18.3576 11.1187H15.0421L11.3328 0.508941H14.4412L16.6446 8.10013H16.7551L18.9517 0.508941H22.0669Z" fill="#798D9C"/>
</svg>
