<svg width="19" height="20" viewBox="0 0 19 20" fill="none" xmlns="http://www.w3.org/2000/svg">
<g clip-path="url(#clip0_713_259)">
<path d="M6.63021 15.3537C6.63021 15.4267 6.54619 15.4852 6.44026 15.4852C6.31971 15.4961 6.23569 15.4377 6.23569 15.3537C6.23569 15.2806 6.31971 15.2222 6.42564 15.2222C6.53523 15.2112 6.63021 15.2697 6.63021 15.3537ZM5.49415 15.1893C5.46858 15.2623 5.54163 15.3464 5.65122 15.3683C5.7462 15.4048 5.85579 15.3683 5.8777 15.2952C5.89962 15.2222 5.83022 15.1381 5.72063 15.1053C5.62565 15.0797 5.51972 15.1162 5.49415 15.1893ZM7.10874 15.1272C7.00281 15.1528 6.92975 15.2222 6.94071 15.3062C6.95167 15.3792 7.04664 15.4267 7.15623 15.4012C7.26217 15.3756 7.33522 15.3062 7.32427 15.2331C7.31331 15.1637 7.21468 15.1162 7.10874 15.1272ZM9.51237 1.12915C4.44575 1.12915 0.569992 4.97569 0.569992 10.0423C0.569992 14.0934 3.11974 17.56 6.76171 18.7801C7.22929 18.8641 7.39367 18.5756 7.39367 18.3381C7.39367 18.1116 7.38271 16.8623 7.38271 16.0952C7.38271 16.0952 4.82566 16.6432 4.28868 15.0066C4.28868 15.0066 3.87224 13.9436 3.27316 13.6697C3.27316 13.6697 2.43664 13.0962 3.33161 13.1071C3.33161 13.1071 4.24119 13.1802 4.74164 14.0496C5.54163 15.4596 6.88226 15.0541 7.40463 14.813C7.48865 14.2286 7.72609 13.8231 7.9891 13.582C5.94711 13.3555 3.88686 13.0596 3.88686 9.54551C3.88686 8.54095 4.16448 8.03685 4.74895 7.39393C4.65397 7.15649 4.34347 6.1775 4.84392 4.91359C5.60739 4.67615 7.36445 5.89988 7.36445 5.89988C8.09503 5.69532 8.88041 5.58938 9.65849 5.58938C10.4366 5.58938 11.2219 5.69532 11.9525 5.89988C11.9525 5.89988 13.7096 4.67249 14.4731 4.91359C14.9735 6.18116 14.663 7.15649 14.568 7.39393C15.1525 8.0405 15.5105 8.5446 15.5105 9.54551C15.5105 13.0706 13.3589 13.3519 11.3169 13.582C11.653 13.8706 11.9379 14.4185 11.9379 15.277C11.9379 16.508 11.927 18.0313 11.927 18.3308C11.927 18.5683 12.095 18.8568 12.5589 18.7728C16.2119 17.56 18.6885 14.0934 18.6885 10.0423C18.6885 4.97569 14.579 1.12915 9.51237 1.12915ZM4.12064 13.7281C4.07315 13.7646 4.08411 13.8487 4.14621 13.9181C4.20466 13.9765 4.28868 14.0021 4.33617 13.9546C4.38365 13.9181 4.3727 13.834 4.3106 13.7646C4.25215 13.7062 4.16813 13.6806 4.12064 13.7281ZM3.72613 13.4322C3.70056 13.4797 3.73709 13.5382 3.81014 13.5747C3.86859 13.6112 3.94165 13.6003 3.96722 13.5491C3.99279 13.5016 3.95626 13.4432 3.8832 13.4067C3.81014 13.3847 3.7517 13.3957 3.72613 13.4322ZM4.90968 14.7327C4.85123 14.7802 4.87315 14.8897 4.95716 14.9592C5.04118 15.0432 5.14712 15.0541 5.19461 14.9957C5.24209 14.9482 5.22018 14.8386 5.14712 14.7692C5.06675 14.6852 4.95716 14.6742 4.90968 14.7327ZM4.49324 14.1957C4.4348 14.2322 4.4348 14.3272 4.49324 14.4112C4.55169 14.4952 4.65032 14.5318 4.69781 14.4952C4.75625 14.4477 4.75625 14.3528 4.69781 14.2687C4.64667 14.1847 4.55169 14.1482 4.49324 14.1957Z" fill="#798D9C"/>
</g>
<defs>
<clipPath id="clip0_713_259">
<rect width="18.703" height="18.703" fill="white" transform="translate(0.27774 0.836914)"/>
</clipPath>
</defs>
</svg>
