<svg width="130" height="141" viewBox="0 0 130 141" fill="none" xmlns="http://www.w3.org/2000/svg">
<path d="M107.081 28.8877V21.2996L112.589 17H52.9891L17 48.2846H40.8677C40.8244 48.8767 40.8066 49.4121 40.8066 50.0193C40.8066 55.8276 42.8182 60.632 46.8455 64.4701C50.8727 68.3146 55.8321 70.2236 61.7047 70.2236C63.0765 70.2236 64.4216 70.121 65.7279 69.9382C64.9178 71.7496 64.5089 73.4277 64.5089 74.9935C64.5089 77.7452 65.7626 80.6863 68.2615 83.8103C57.3292 84.5544 49.2965 86.5223 44.1762 89.7074C41.2417 91.5183 38.8818 93.8046 37.1013 96.5428C35.3206 99.3013 34.4325 102.259 34.4325 105.449C34.4325 108.137 35.0071 110.558 36.1654 112.711C37.3236 114.864 38.8342 116.632 40.7107 118.001C42.5827 119.385 44.7424 120.537 47.1806 121.475C49.6144 122.407 52.0308 123.069 54.4424 123.443C56.8463 123.817 59.2364 124 61.6052 124C65.3582 124 69.1157 123.517 72.9035 122.555C76.6824 121.584 80.2264 120.147 83.5397 118.238C86.8442 116.342 89.5349 113.755 91.5986 110.514C93.6579 107.26 94.6901 103.602 94.6901 99.5532C94.6901 96.4837 94.0633 93.6909 92.8092 91.1546C91.564 88.6268 90.0401 86.5456 88.2247 84.9286C86.4133 83.3089 84.6024 81.8202 82.7869 80.4792C80.9755 79.1292 79.4431 77.7622 78.1979 76.3516C76.9483 74.9454 76.3214 73.5501 76.3214 72.1764C76.3214 70.8051 76.8046 69.4814 77.7748 68.2014C78.7374 66.917 79.9131 65.6802 81.2884 64.4938C82.6643 63.3097 84.0401 61.9949 85.4115 60.5557C86.7828 59.1214 87.9585 57.26 88.9251 54.9805C89.8961 52.7014 90.3749 50.1195 90.3749 47.2462C90.3749 43.4976 89.6652 40.4303 88.2719 37.9635C88.1065 37.6786 87.9326 37.461 87.7494 37.1214L103.606 24.1164V28.8864C101.546 29.1454 101.761 30.376 101.761 31.8498V67.7024C101.761 69.3627 103.119 70.7212 104.779 70.7212H105.891C107.551 70.7212 108.91 69.3628 108.91 67.7024V31.8498C108.91 30.3795 109.126 29.1503 107.081 28.8877ZM77.1658 90.8805C77.4838 91.0895 78.1979 91.6553 79.3165 92.5631C80.4449 93.4668 81.2105 94.1502 81.6197 94.629C82.0206 95.0926 82.6171 95.7896 83.3964 96.732C84.1802 97.6723 84.7112 98.4886 84.9899 99.1658C85.2686 99.8559 85.5516 100.687 85.8387 101.658C86.1134 102.618 86.2525 103.602 86.2525 104.601C86.2525 109.352 84.4236 112.872 80.7754 115.151C77.1182 117.43 72.7597 118.571 67.6964 118.571C65.1365 118.571 62.6242 118.266 60.1556 117.68C57.6915 117.091 55.3317 116.194 53.0807 115.005C50.8296 113.819 49.0187 112.162 47.6469 110.046C46.271 107.917 45.5831 105.472 45.5831 102.732C45.5831 99.8559 46.3624 97.3566 47.9299 95.2344C49.4885 93.1096 51.535 91.5028 54.0691 90.4095C56.5943 89.3101 59.1542 88.5308 61.749 88.0694C64.3438 87.5951 66.9867 87.3575 69.6733 87.3575C70.9184 87.3575 71.8846 87.4274 72.5725 87.5514C72.6991 87.6125 73.4173 88.1283 74.7277 89.1016C76.0384 90.0664 76.8524 90.6607 77.1658 90.8805ZM76.2301 62.8549C74.1663 65.3235 71.2884 66.5576 67.605 66.5576C64.3004 66.5576 61.3918 65.2299 58.893 62.5696C56.3852 59.916 54.5956 56.9053 53.5028 53.5329C52.4057 50.1589 51.8572 46.8498 51.8572 43.5998C51.8572 39.7839 52.859 36.5356 54.8612 33.8539C56.8639 31.1651 59.7373 29.8177 63.4819 29.8177C66.7909 29.8177 69.7164 31.2216 72.2417 34.0411C74.7758 36.8512 76.5913 40.0078 77.68 43.5062C78.7728 47.0002 79.3167 50.3413 79.3167 53.5329C79.3167 57.2798 78.2848 60.3904 76.2301 62.8549Z" fill="#798D9C"/>
</svg>
