<svg width="20" height="19" viewBox="0 0 20 19" fill="none" xmlns="http://www.w3.org/2000/svg">
<g clip-path="url(#clip0_713_257)">
<path d="M5.78776 16.5933H2.39492V5.66737H5.78776V16.5933ZM4.08952 4.17697C3.00459 4.17697 2.1246 3.27835 2.1246 2.19343C2.1246 1.6723 2.33162 1.17252 2.70011 0.804025C3.06861 0.435533 3.56839 0.228516 4.08952 0.228516C4.61064 0.228516 5.11043 0.435533 5.47892 0.804025C5.84741 1.17252 6.05443 1.6723 6.05443 2.19343C6.05443 3.27835 5.17407 4.17697 4.08952 4.17697ZM18.4861 16.5933H15.1006V11.2746C15.1006 10.0071 15.075 8.3815 13.3365 8.3815C11.5725 8.3815 11.3022 9.75865 11.3022 11.1833V16.5933H7.91304V5.66737H11.1671V7.15776H11.2146C11.6675 6.29933 12.774 5.3934 14.4248 5.3934C17.8585 5.3934 18.4897 7.65456 18.4897 10.5915V16.5933H18.4861Z" fill="#798D9C"/>
</g>
<defs>
<clipPath id="clip0_713_257">
<rect width="18.703" height="18.703" fill="white" transform="translate(0.955627 0.228027)"/>
</clipPath>
</defs>
</svg>
