<svg width="21" height="19" viewBox="0 0 21 19" fill="#FF0000" xmlns="http://www.w3.org/2000/svg">
<path d="M17.8053 9.10091C17.8053 4.95936 14.4273 1.60196 10.2604 1.60196C6.09341 1.60196 2.71541 4.95936 2.71541 9.10091C2.71541 13.2425 6.09341 16.5999 10.2604 16.5999C14.4273 16.5999 17.8053 13.2425 17.8053 9.10091ZM1.84692 9.10091C1.84692 4.48263 5.61376 0.73877 10.2604 0.73877C14.907 0.73877 18.6738 4.48263 18.6738 9.10091C18.6738 13.7192 14.907 17.463 10.2604 17.463C5.61376 17.463 1.84692 13.7192 1.84692 9.10091Z" fill="#8CA7C3"/>
<path d="M8.29822 16.5877C8.89705 15.7236 8.85461 15.075 8.03297 14.267C7.21133 13.4591 6.73307 12.2772 6.73307 12.2772C6.73307 12.2772 6.55442 11.5908 6.1475 11.6539C5.74062 11.7171 5.44184 12.7429 6.29418 13.3705C7.14648 13.9978 6.12443 14.4241 5.79651 13.8349C5.46859 13.2456 4.5732 11.7308 4.10886 11.4411C3.64471 11.1514 3.31788 11.3137 3.42733 11.9109C3.53679 12.508 5.47795 13.9554 5.28908 14.2687C5.10021 14.5817 4.4346 13.9006 4.4346 13.9006C4.4346 13.9006 2.35176 12.0355 1.89829 12.5215C1.44482 13.0076 2.24231 13.4148 3.37881 14.0918C4.51554 14.7686 4.60365 14.9474 4.4424 15.2035C4.28094 15.4596 1.77208 13.3782 1.53643 14.2605C1.30099 15.1429 4.09688 15.399 3.92433 16.0081C3.75177 16.6175 1.95486 14.8552 1.58734 15.5418C1.21961 16.2287 4.12298 17.0357 4.14649 17.0417C5.08433 17.2811 7.46615 17.7883 8.29822 16.5877Z" fill="white"/>
<path d="M3.73453 10.4653C3.3849 10.4653 3.07241 10.608 2.85451 10.8669C2.71975 11.0272 2.57895 11.2856 2.5675 11.6725C2.42087 11.6307 2.27985 11.6073 2.14811 11.6073C1.81338 11.6073 1.51104 11.7347 1.29724 11.9663C1.02254 12.2636 0.900526 12.6288 0.95365 12.9943C0.978919 13.1683 1.03744 13.3244 1.12491 13.4688C0.94048 13.6171 0.804642 13.8236 0.738988 14.0719C0.687592 14.2665 0.6349 14.6719 0.910027 15.0896C0.892536 15.1168 0.876123 15.1451 0.86079 15.1741C0.695366 15.4861 0.684785 15.8387 0.830773 16.1671C1.05213 16.6648 1.60217 17.0569 2.6703 17.4778C3.3348 17.7396 3.94272 17.907 3.94812 17.9084C4.82662 18.1349 5.62114 18.2499 6.30894 18.2499C7.57318 18.2499 8.47826 17.8651 8.99915 17.1062C9.8375 15.8842 9.71762 14.7666 8.6329 13.6892C8.03251 13.093 7.63343 12.214 7.55028 12.021C7.38271 11.4497 6.93954 10.8147 6.20294 10.8147H6.20273C6.14072 10.8147 6.07809 10.8196 6.01636 10.8293C5.6937 10.8797 5.41166 11.0643 5.21019 11.342C4.99271 11.0733 4.78152 10.8596 4.59039 10.739C4.30228 10.5574 4.01442 10.4653 3.73453 10.4653ZM3.73453 11.3238C3.84467 11.3238 3.97921 11.3703 4.12757 11.4639C4.58821 11.7543 5.47708 13.2727 5.80254 13.8633C5.91158 14.0611 6.09799 14.1448 6.26577 14.1448C6.59878 14.1448 6.85877 13.8159 6.29622 13.3978C5.45032 12.7687 5.74705 11.7406 6.1509 11.6772C6.16858 11.6744 6.18607 11.6732 6.20294 11.6732C6.57005 11.6732 6.73204 12.302 6.73204 12.302C6.73204 12.302 7.20668 13.4866 8.02217 14.2964C8.83762 15.1063 8.87972 15.7563 8.28541 16.6225C7.88004 17.2131 7.10412 17.2902 6.30894 17.2902C5.48422 17.2902 4.6373 17.1457 4.16348 17.0235C4.14017 17.0176 1.2601 16.2626 1.62506 15.5741C1.6864 15.4584 1.78746 15.4121 1.91466 15.4121C2.42864 15.4121 3.36352 16.1723 3.76542 16.1723C3.85526 16.1723 3.9222 16.1032 3.94812 16.0105C4.12695 15.3707 1.34065 15.1743 1.57453 14.2899C1.61578 14.1335 1.72764 14.0699 1.88486 14.0701C2.56405 14.0701 4.08784 15.2571 4.40726 15.2571C4.43164 15.2571 4.44912 15.2501 4.45864 15.2351C4.61866 14.9784 4.54495 14.7694 3.41702 14.091C2.28908 13.4124 1.4834 13.034 1.93367 12.5469C1.9855 12.4906 2.05892 12.4657 2.14811 12.4657C2.83291 12.4659 4.45085 13.9291 4.45085 13.9291C4.45085 13.9291 4.88753 14.3805 5.15167 14.3805C5.21233 14.3805 5.26395 14.3567 5.29892 14.2978C5.48615 13.9841 3.55983 12.5333 3.4512 11.9348C3.37756 11.5292 3.50281 11.3238 3.73453 11.3238Z" fill="#8CA7C3"/>
<path d="M12.1852 16.5877C11.5864 15.7236 11.6288 15.075 12.4505 14.267C13.2721 13.4591 13.7504 12.2772 13.7504 12.2772C13.7504 12.2772 13.9291 11.5908 14.336 11.6539C14.7429 11.7171 15.0416 12.7429 14.1893 13.3705C13.337 13.9978 14.359 14.4241 14.6869 13.8349C15.0149 13.2456 15.9103 11.7308 16.3746 11.4411C16.8388 11.1514 17.1656 11.3137 17.0561 11.9109C16.9467 12.508 15.0055 13.9554 15.1944 14.2687C15.3832 14.5817 16.0489 13.9006 16.0489 13.9006C16.0489 13.9006 18.1317 12.0355 18.5852 12.5215C19.0387 13.0076 18.2412 13.4148 17.1047 14.0918C15.9679 14.7686 15.8798 14.9474 16.0411 15.2035C16.2025 15.4596 18.7114 13.3782 18.9471 14.2605C19.1825 15.1429 16.3866 15.399 16.5592 16.0081C16.7317 16.6175 18.5286 14.8552 18.8961 15.5418C19.2639 16.2287 16.3605 17.0357 16.337 17.0417C15.3991 17.2811 13.0173 17.7883 12.1852 16.5877Z" fill="white"/>
<path d="M16.749 10.4653C17.0986 10.4653 17.4111 10.608 17.629 10.8669C17.7638 11.0272 17.9046 11.2856 17.916 11.6725C18.0626 11.6307 18.2036 11.6073 18.3354 11.6073C18.6701 11.6073 18.9725 11.7347 19.1862 11.9663C19.461 12.2636 19.583 12.6288 19.5298 12.9943C19.5046 13.1683 19.4461 13.3244 19.3586 13.4688C19.543 13.6171 19.6789 13.8236 19.7445 14.0719C19.7959 14.2665 19.8486 14.6719 19.5735 15.0896C19.591 15.1168 19.6074 15.1451 19.6227 15.1741C19.7882 15.4861 19.7987 15.8387 19.6527 16.1671C19.4314 16.6648 18.8813 17.0569 17.8132 17.4778C17.1487 17.7396 16.5408 17.907 16.5354 17.9084C15.6569 18.1349 14.8624 18.2499 14.1745 18.2499C12.9103 18.2499 12.0052 17.8651 11.4844 17.1062C10.646 15.8842 10.7659 14.7666 11.8506 13.6892C12.451 13.093 12.8501 12.214 12.9332 12.021C13.1008 11.4497 13.5439 10.8147 14.2806 10.8147H14.2808C14.3428 10.8147 14.4054 10.8196 14.4672 10.8293C14.7898 10.8797 15.0718 11.0643 15.2733 11.342C15.4908 11.0733 15.702 10.8596 15.8931 10.739C16.1812 10.5574 16.4691 10.4653 16.749 10.4653ZM16.749 11.3238C16.6388 11.3238 16.5043 11.3703 16.3559 11.4639C15.8953 11.7543 15.0064 13.2727 14.6809 13.8633C14.5719 14.0611 14.3855 14.1448 14.2177 14.1448C13.8847 14.1448 13.6247 13.8159 14.1873 13.3978C15.0332 12.7687 14.7365 11.7406 14.3326 11.6772C14.3149 11.6744 14.2974 11.6732 14.2806 11.6732C13.9134 11.6732 13.7515 12.302 13.7515 12.302C13.7515 12.302 13.2768 13.4866 12.4614 14.2964C11.6459 15.1063 11.6038 15.7563 12.1981 16.6225C12.6034 17.2131 13.3794 17.2902 14.1745 17.2902C14.9993 17.2902 15.8462 17.1457 16.32 17.0235C16.3433 17.0176 19.2234 16.2626 18.8584 15.5741C18.7971 15.4584 18.696 15.4121 18.5688 15.4121C18.0549 15.4121 17.12 16.1723 16.7181 16.1723C16.6282 16.1723 16.5613 16.1032 16.5354 16.0105C16.3565 15.3707 19.1429 15.1743 18.909 14.2899C18.8677 14.1335 18.7558 14.0699 18.5987 14.0701C17.9195 14.0701 16.3956 15.2571 16.0763 15.2571C16.0518 15.2571 16.0344 15.2501 16.0248 15.2351C15.8648 14.9784 15.9385 14.7694 17.0665 14.091C18.1944 13.4124 19.0001 13.034 18.5498 12.5469C18.498 12.4906 18.4246 12.4657 18.3354 12.4657C17.6506 12.4659 16.0326 13.9291 16.0326 13.9291C16.0326 13.9291 15.596 14.3805 15.3319 14.3805C15.2712 14.3805 15.2196 14.3567 15.1846 14.2978C14.9973 13.9841 16.9237 12.5333 17.0323 11.9348C17.1059 11.5292 16.9807 11.3238 16.749 11.3238Z" fill="#8CA7C3"/>
<path d="M13.1035 9.3946C13.1035 8.42336 11.8439 9.90363 10.2864 9.91024C8.72912 9.90371 7.46948 8.42344 7.46948 9.3946C7.46948 10.0385 7.77758 11.0858 8.60505 11.7212C8.76971 11.1547 9.67446 10.7009 9.80378 10.766C9.98793 10.8588 9.97759 11.116 10.2864 11.3426C10.5953 11.116 10.585 10.8589 10.7691 10.766C10.8985 10.7009 11.8032 11.1547 11.9678 11.7212C12.7953 11.0858 13.1034 10.0385 13.1034 9.39468L13.1035 9.3946Z" fill="#8CA7C3"/>
<path d="M10.769 10.7655C10.5848 10.8583 10.5952 11.1155 10.2863 11.3421C9.97748 11.1155 9.98782 10.8584 9.80367 10.7655C9.67427 10.7003 8.7696 11.1542 8.60498 11.7207C9.02335 12.042 9.57458 12.2579 10.2858 12.2632C10.286 12.2632 10.2862 12.2632 10.2864 12.2632C10.2866 12.2632 10.2868 12.2632 10.287 12.2632C10.9983 12.258 11.5495 12.042 11.9679 11.7207C11.8032 11.1542 10.8985 10.7003 10.7692 10.7655H10.769Z" fill="white"/>
<path d="M15.3083 8.04433C15.6936 8.04433 16.006 7.73196 16.006 7.34663C16.006 6.96129 15.6936 6.64893 15.3083 6.64893C14.923 6.64893 14.6106 6.96129 14.6106 7.34663C14.6106 7.73196 14.923 8.04433 15.3083 8.04433Z" fill="#8CA7C3"/>
<path d="M5.25324 8.04433C5.63858 8.04433 5.95094 7.73196 5.95094 7.34663C5.95094 6.96129 5.63858 6.64893 5.25324 6.64893C4.86791 6.64893 4.55554 6.96129 4.55554 7.34663C4.55554 7.73196 4.86791 8.04433 5.25324 8.04433Z" fill="#8CA7C3"/>
<path d="M12.8486 7.04249C13.125 7.13984 13.235 7.70666 13.5143 7.55858C14.0432 7.27811 14.244 6.62309 13.9628 6.09559C13.6816 5.56809 13.0248 5.36785 12.4959 5.64832C11.967 5.9288 11.7662 6.58377 12.0475 7.11128C12.1802 7.36027 12.6015 6.95544 12.8486 7.04249Z" fill="#8CA7C3"/>
<path d="M7.73838 7.04249C7.46193 7.13984 7.35194 7.70666 7.0727 7.55858C6.5438 7.27811 6.34303 6.62309 6.62424 6.09559C6.90545 5.56809 7.56215 5.36785 8.09105 5.64832C8.61995 5.9288 8.82072 6.58377 8.53951 7.11128C8.40678 7.36027 7.98549 6.95544 7.73838 7.04249Z" fill="#8CA7C3"/>
</svg>
