<svg width="33" height="17" viewBox="0 0 33 17" fill="none" xmlns="http://www.w3.org/2000/svg">
<path d="M8.19798 16.3049C6.59901 16.3049 5.22364 15.9661 4.07184 15.2886C2.92682 14.6043 2.04604 13.6558 1.42949 12.443C0.819716 11.2302 0.514829 9.83451 0.514829 8.25588C0.514829 6.65691 0.823103 5.25443 1.43965 4.04844C2.06298 2.83567 2.94715 1.89052 4.09217 1.21299C5.23719 0.52869 6.59901 0.186539 8.17765 0.186539C9.53948 0.186539 10.7319 0.433836 11.755 0.928429C12.7781 1.42302 13.5877 2.11749 14.1839 3.01182C14.7801 3.90616 15.1087 4.95632 15.1697 6.16232H11.0842C10.9691 5.38316 10.6642 4.75645 10.1696 4.28218C9.68176 3.80114 9.0415 3.56062 8.24879 3.56062C7.57804 3.56062 6.99198 3.74355 6.49061 4.10942C5.99602 4.4685 5.60983 4.99359 5.33204 5.68466C5.05425 6.37574 4.91536 7.21249 4.91536 8.1949C4.91536 9.19086 5.05087 10.0378 5.32188 10.7356C5.59966 11.4335 5.98924 11.9653 6.49061 12.3312C6.99198 12.6971 7.57804 12.88 8.24879 12.88C8.74338 12.88 9.18716 12.7784 9.58013 12.5751C9.97987 12.3718 10.3085 12.0771 10.5659 11.6909C10.8302 11.298 11.0029 10.8271 11.0842 10.2783H15.1697C15.102 11.4707 14.7768 12.5209 14.1941 13.4288C13.6182 14.3299 12.8221 15.0345 11.8058 15.5427C10.7895 16.0508 9.5869 16.3049 8.19798 16.3049ZM32.4949 0.389796L27.0374 16H22.1592L16.7018 0.389796H21.2751L24.517 11.5588H24.6796L27.9114 0.389796H32.4949Z" fill="#EEF3FF"/>
</svg>
