<svg width="29" height="28" viewBox="0 0 29 28" fill="none" xmlns="http://www.w3.org/2000/svg">
<path d="M10.2456 21.3587C10.2456 21.4661 10.122 21.5521 9.96616 21.5521C9.78879 21.5683 9.66518 21.4823 9.66518 21.3587C9.66518 21.2512 9.78879 21.1652 9.94466 21.1652C10.1059 21.149 10.2456 21.235 10.2456 21.3587ZM8.57413 21.1168C8.53651 21.2243 8.644 21.3479 8.80524 21.3801C8.94498 21.4339 9.10622 21.3801 9.13847 21.2727C9.17071 21.1652 9.0686 21.0415 8.90736 20.9932C8.76762 20.9556 8.61175 21.0093 8.57413 21.1168ZM10.9497 21.0254C10.7938 21.063 10.6864 21.1652 10.7025 21.2888C10.7186 21.3963 10.8583 21.4661 11.0196 21.4285C11.1754 21.3909 11.2829 21.2888 11.2668 21.1813C11.2507 21.0792 11.1056 21.0093 10.9497 21.0254ZM14.4862 0.429932C7.03162 0.429932 1.32916 6.08939 1.32916 13.544C1.32916 19.5044 5.08064 24.6049 10.4391 26.4C11.1271 26.5236 11.3689 26.0991 11.3689 25.7497C11.3689 25.4165 11.3528 23.5784 11.3528 22.4497C11.3528 22.4497 7.59058 23.2559 6.80051 20.8481C6.80051 20.8481 6.18781 19.2841 5.30637 18.881C5.30637 18.881 4.07559 18.0371 5.39236 18.0533C5.39236 18.0533 6.73064 18.1608 7.46696 19.4399C8.644 21.5145 10.6165 20.9179 11.3851 20.5632C11.5087 19.7033 11.858 19.1067 12.245 18.752C9.24058 18.4187 6.20931 17.9834 6.20931 12.813C6.20931 11.335 6.61778 10.5933 7.47771 9.64738C7.33797 9.29803 6.88113 7.85764 7.61745 5.99802C8.74075 5.64867 11.3259 7.44917 11.3259 7.44917C12.4009 7.14819 13.5564 6.99233 14.7012 6.99233C15.846 6.99233 17.0015 7.14819 18.0764 7.44917C18.0764 7.44917 20.6616 5.6433 21.7849 5.99802C22.5212 7.86301 22.0644 9.29803 21.9247 9.64738C22.7846 10.5987 23.3113 11.3404 23.3113 12.813C23.3113 17.9995 20.1457 18.4134 17.1413 18.752C17.6357 19.1766 18.0549 19.9827 18.0549 21.2458C18.0549 23.057 18.0388 25.2982 18.0388 25.739C18.0388 26.0883 18.286 26.5129 18.9686 26.3893C24.3432 24.6049 27.9872 19.5044 27.9872 13.544C27.9872 6.08939 21.9408 0.429932 14.4862 0.429932ZM6.55328 18.9669C6.48341 19.0207 6.49953 19.1443 6.5909 19.2464C6.6769 19.3324 6.80051 19.37 6.87038 19.3002C6.94025 19.2464 6.92413 19.1228 6.83276 19.0207C6.74677 18.9347 6.62315 18.8971 6.55328 18.9669ZM5.97282 18.5316C5.9352 18.6015 5.98895 18.6875 6.09644 18.7412C6.18243 18.795 6.28992 18.7788 6.32755 18.7036C6.36517 18.6337 6.31142 18.5477 6.20393 18.494C6.09644 18.4617 6.01045 18.4779 5.97282 18.5316ZM7.7142 20.445C7.6282 20.5148 7.66045 20.6761 7.78407 20.7782C7.90768 20.9018 8.06354 20.9179 8.13341 20.8319C8.20328 20.7621 8.17104 20.6008 8.06354 20.4987C7.9453 20.3751 7.78407 20.359 7.7142 20.445ZM7.10149 19.6549C7.0155 19.7086 7.0155 19.8484 7.10149 19.972C7.18748 20.0956 7.3326 20.1494 7.40247 20.0956C7.48846 20.0257 7.48846 19.886 7.40247 19.7624C7.32722 19.6388 7.18748 19.585 7.10149 19.6549Z" fill="#EEF3FF"/>
</svg>
