<svg width="28" height="28" viewBox="0 0 28 28" fill="none" xmlns="http://www.w3.org/2000/svg">
<path d="M7.49073 24.0782H2.4988V8.00274H7.49073V24.0782ZM4.99208 5.8099C3.39582 5.8099 2.10107 4.48775 2.10107 2.89149C2.10107 2.12475 2.40566 1.38941 2.94783 0.847243C3.49 0.305075 4.22533 0.000488281 4.99208 0.000488281C5.75882 0.000488281 6.49415 0.305075 7.03632 0.847243C7.57849 1.38941 7.88308 2.12475 7.88308 2.89149C7.88308 4.48775 6.5878 5.8099 4.99208 5.8099ZM26.1739 24.0782H21.1928V16.2528C21.1928 14.3878 21.1551 11.9961 18.5974 11.9961C16.002 11.9961 15.6042 14.0223 15.6042 16.1184V24.0782H10.6177V8.00274H15.4054V10.1956H15.4752C16.1417 8.93255 17.7697 7.59964 20.1985 7.59964C25.2506 7.59964 26.1793 10.9265 26.1793 15.2477V24.0782H26.1739Z" fill="#EEF3FF"/>
</svg>
